<mxfile host="app.diagrams.net" modified="2024-05-04T06:02:09.180Z" agent="Mozilla/5.0 (Windows NT 10.0; Win64; x64) AppleWebKit/537.36 (KHTML, like Gecko) Chrome/124.0.0.0 Safari/537.36" etag="rHwbJv4qUDaYSwe8Ppk-" version="23.0.2" type="github">
  <diagram name="Page-1" id="SYwFpmESqybX0uCg1Dp3">
    <mxGraphModel dx="1166" dy="1970" grid="0" gridSize="10" guides="1" tooltips="1" connect="1" arrows="1" fold="1" page="1" pageScale="1" pageWidth="850" pageHeight="1100" math="0" shadow="0">
      <root>
        <mxCell id="0" />
        <mxCell id="1" parent="0" />
        <mxCell id="XFF4y8vnrjnA9_jUFiSj-12" value="" style="rounded=1;whiteSpace=wrap;html=1;fillColor=#d5e8d4;strokeColor=#82b366;" vertex="1" parent="1">
          <mxGeometry x="520" y="189" width="180" height="80" as="geometry" />
        </mxCell>
        <mxCell id="XFF4y8vnrjnA9_jUFiSj-48" value="" style="rounded=1;whiteSpace=wrap;html=1;" vertex="1" parent="1">
          <mxGeometry x="500" y="318" width="760" height="382" as="geometry" />
        </mxCell>
        <mxCell id="XFF4y8vnrjnA9_jUFiSj-47" value="" style="rounded=1;whiteSpace=wrap;html=1;" vertex="1" parent="1">
          <mxGeometry x="751" y="420" width="419" height="260" as="geometry" />
        </mxCell>
        <mxCell id="XFF4y8vnrjnA9_jUFiSj-8" value="" style="rounded=1;whiteSpace=wrap;html=1;fillColor=#d5e8d4;strokeColor=#82b366;" vertex="1" parent="1">
          <mxGeometry x="140" y="70" width="180" height="180" as="geometry" />
        </mxCell>
        <mxCell id="XFF4y8vnrjnA9_jUFiSj-3" style="edgeStyle=orthogonalEdgeStyle;rounded=0;orthogonalLoop=1;jettySize=auto;html=1;exitX=0.25;exitY=0;exitDx=0;exitDy=0;entryX=0;entryY=0.5;entryDx=0;entryDy=0;strokeColor=default;startArrow=classic;startFill=1;" edge="1" parent="1" source="XFF4y8vnrjnA9_jUFiSj-1" target="XFF4y8vnrjnA9_jUFiSj-2">
          <mxGeometry relative="1" as="geometry" />
        </mxCell>
        <mxCell id="XFF4y8vnrjnA9_jUFiSj-4" value="physical &lt;br&gt;wiring" style="edgeLabel;html=1;align=center;verticalAlign=middle;resizable=0;points=[];" vertex="1" connectable="0" parent="XFF4y8vnrjnA9_jUFiSj-3">
          <mxGeometry x="0.0186" y="2" relative="1" as="geometry">
            <mxPoint x="-4" y="35" as="offset" />
          </mxGeometry>
        </mxCell>
        <mxCell id="XFF4y8vnrjnA9_jUFiSj-6" style="edgeStyle=orthogonalEdgeStyle;rounded=0;orthogonalLoop=1;jettySize=auto;html=1;exitX=1;exitY=0.5;exitDx=0;exitDy=0;startArrow=classic;startFill=1;" edge="1" parent="1" source="XFF4y8vnrjnA9_jUFiSj-1" target="XFF4y8vnrjnA9_jUFiSj-5">
          <mxGeometry relative="1" as="geometry" />
        </mxCell>
        <mxCell id="XFF4y8vnrjnA9_jUFiSj-7" value="Wifi" style="edgeLabel;html=1;align=center;verticalAlign=middle;resizable=0;points=[];" vertex="1" connectable="0" parent="XFF4y8vnrjnA9_jUFiSj-6">
          <mxGeometry x="0.0917" y="-2" relative="1" as="geometry">
            <mxPoint x="-16" y="-2" as="offset" />
          </mxGeometry>
        </mxCell>
        <mxCell id="XFF4y8vnrjnA9_jUFiSj-67" style="edgeStyle=orthogonalEdgeStyle;rounded=0;orthogonalLoop=1;jettySize=auto;html=1;entryX=0;entryY=0.25;entryDx=0;entryDy=0;curved=1;exitX=1;exitY=0.25;exitDx=0;exitDy=0;strokeColor=#82b366;dashed=1;startArrow=classic;startFill=1;fillColor=#d5e8d4;" edge="1" parent="1" source="XFF4y8vnrjnA9_jUFiSj-1" target="XFF4y8vnrjnA9_jUFiSj-18">
          <mxGeometry relative="1" as="geometry">
            <Array as="points">
              <mxPoint x="450" y="168" />
              <mxPoint x="450" y="205" />
            </Array>
          </mxGeometry>
        </mxCell>
        <mxCell id="XFF4y8vnrjnA9_jUFiSj-1" value="ASRS robot" style="text;html=1;align=center;verticalAlign=middle;whiteSpace=wrap;rounded=0;fontStyle=1" vertex="1" parent="1">
          <mxGeometry x="160" y="160" width="40" height="30" as="geometry" />
        </mxCell>
        <mxCell id="XFF4y8vnrjnA9_jUFiSj-2" value="Sensors &amp;amp; actuators" style="text;html=1;strokeColor=#b85450;fillColor=#f8cecc;align=center;verticalAlign=middle;whiteSpace=wrap;rounded=0;" vertex="1" parent="1">
          <mxGeometry x="240" y="80" width="60" height="30" as="geometry" />
        </mxCell>
        <mxCell id="XFF4y8vnrjnA9_jUFiSj-5" value="" style="shape=mxgraph.cisco.routers.wireless_router;sketch=0;html=1;pointerEvents=1;dashed=0;fillColor=#036897;strokeColor=#ffffff;strokeWidth=2;verticalLabelPosition=bottom;verticalAlign=top;align=center;outlineConnect=0;" vertex="1" parent="1">
          <mxGeometry x="240" y="200" width="38" height="37.51" as="geometry" />
        </mxCell>
        <mxCell id="XFF4y8vnrjnA9_jUFiSj-9" value="Pharmacy" style="text;html=1;strokeColor=none;fillColor=none;align=center;verticalAlign=middle;whiteSpace=wrap;rounded=0;fontStyle=1" vertex="1" parent="1">
          <mxGeometry x="120" y="45" width="110" height="30" as="geometry" />
        </mxCell>
        <mxCell id="XFF4y8vnrjnA9_jUFiSj-32" style="edgeStyle=orthogonalEdgeStyle;rounded=0;orthogonalLoop=1;jettySize=auto;html=1;entryX=0.5;entryY=0;entryDx=0;entryDy=0;" edge="1" parent="1" source="XFF4y8vnrjnA9_jUFiSj-10" target="XFF4y8vnrjnA9_jUFiSj-29">
          <mxGeometry relative="1" as="geometry" />
        </mxCell>
        <mxCell id="XFF4y8vnrjnA9_jUFiSj-10" value="&lt;b&gt;the Internet&lt;/b&gt;" style="image;sketch=0;aspect=fixed;html=1;points=[];align=center;fontSize=12;image=img/lib/mscae/Resource_Graph_Explorer.svg;" vertex="1" parent="1">
          <mxGeometry x="400" y="198.51" width="38.22" height="39" as="geometry" />
        </mxCell>
        <mxCell id="XFF4y8vnrjnA9_jUFiSj-11" style="edgeStyle=orthogonalEdgeStyle;rounded=0;orthogonalLoop=1;jettySize=auto;html=1;exitX=1;exitY=0.5;exitDx=0;exitDy=0;exitPerimeter=0;entryX=-0.009;entryY=0.547;entryDx=0;entryDy=0;entryPerimeter=0;startArrow=classic;startFill=1;" edge="1" parent="1" source="XFF4y8vnrjnA9_jUFiSj-5" target="XFF4y8vnrjnA9_jUFiSj-10">
          <mxGeometry relative="1" as="geometry" />
        </mxCell>
        <mxCell id="XFF4y8vnrjnA9_jUFiSj-13" value="HiveMQ cluster" style="text;html=1;strokeColor=none;fillColor=none;align=center;verticalAlign=middle;whiteSpace=wrap;rounded=0;fontStyle=1" vertex="1" parent="1">
          <mxGeometry x="520" y="167.51" width="110" height="30" as="geometry" />
        </mxCell>
        <mxCell id="XFF4y8vnrjnA9_jUFiSj-18" value="MQTT broker" style="text;html=1;strokeColor=none;fillColor=none;align=center;verticalAlign=middle;whiteSpace=wrap;rounded=0;" vertex="1" parent="1">
          <mxGeometry x="530" y="200" width="82" height="20" as="geometry" />
        </mxCell>
        <mxCell id="XFF4y8vnrjnA9_jUFiSj-21" style="edgeStyle=orthogonalEdgeStyle;rounded=0;orthogonalLoop=1;jettySize=auto;html=1;exitX=0;exitY=0.5;exitDx=0;exitDy=0;entryX=0.25;entryY=1;entryDx=0;entryDy=0;startArrow=classic;startFill=1;strokeColor=#000000;dashed=1;" edge="1" parent="1" source="XFF4y8vnrjnA9_jUFiSj-19" target="XFF4y8vnrjnA9_jUFiSj-18">
          <mxGeometry relative="1" as="geometry" />
        </mxCell>
        <mxCell id="XFF4y8vnrjnA9_jUFiSj-19" value="MQTT test Client" style="text;html=1;strokeColor=none;fillColor=none;align=center;verticalAlign=middle;whiteSpace=wrap;rounded=0;" vertex="1" parent="1">
          <mxGeometry x="580" y="230" width="100" height="30" as="geometry" />
        </mxCell>
        <mxCell id="XFF4y8vnrjnA9_jUFiSj-22" style="edgeStyle=orthogonalEdgeStyle;rounded=0;orthogonalLoop=1;jettySize=auto;html=1;entryX=-0.02;entryY=0.362;entryDx=0;entryDy=0;entryPerimeter=0;startArrow=classic;startFill=1;" edge="1" parent="1" source="XFF4y8vnrjnA9_jUFiSj-10" target="XFF4y8vnrjnA9_jUFiSj-12">
          <mxGeometry relative="1" as="geometry" />
        </mxCell>
        <mxCell id="XFF4y8vnrjnA9_jUFiSj-35" style="edgeStyle=orthogonalEdgeStyle;rounded=0;orthogonalLoop=1;jettySize=auto;html=1;startArrow=classic;startFill=1;dashed=1;" edge="1" parent="1" source="XFF4y8vnrjnA9_jUFiSj-24" target="XFF4y8vnrjnA9_jUFiSj-33">
          <mxGeometry relative="1" as="geometry" />
        </mxCell>
        <mxCell id="XFF4y8vnrjnA9_jUFiSj-41" style="edgeStyle=orthogonalEdgeStyle;rounded=0;orthogonalLoop=1;jettySize=auto;html=1;entryX=0;entryY=0.5;entryDx=0;entryDy=0;startArrow=classic;startFill=1;dashed=1;" edge="1" parent="1" source="XFF4y8vnrjnA9_jUFiSj-24" target="XFF4y8vnrjnA9_jUFiSj-39">
          <mxGeometry relative="1" as="geometry">
            <Array as="points">
              <mxPoint x="560" y="455" />
            </Array>
          </mxGeometry>
        </mxCell>
        <mxCell id="XFF4y8vnrjnA9_jUFiSj-24" value="regional &lt;br&gt;External Load &lt;br&gt;Balancer" style="image;sketch=0;aspect=fixed;html=1;points=[];align=center;fontSize=12;image=img/lib/mscae/Application_Gateway.svg;imageBackground=#B3FF66;" vertex="1" parent="1">
          <mxGeometry x="540" y="330" width="40" height="40" as="geometry" />
        </mxCell>
        <mxCell id="XFF4y8vnrjnA9_jUFiSj-29" value="" style="strokeColor=#dddddd;shadow=1;strokeWidth=1;rounded=1;absoluteArcSize=1;arcSize=2;" vertex="1" parent="1">
          <mxGeometry x="365" y="318" width="108.22" height="59.03" as="geometry" />
        </mxCell>
        <mxCell id="XFF4y8vnrjnA9_jUFiSj-30" value="Cloud&#xa;CDN" style="editableCssRules=.*;html=1;fontColor=#999999;shape=image;verticalLabelPosition=middle;verticalAlign=middle;labelPosition=right;align=left;spacingLeft=20;part=1;points=[];imageAspect=0;image=data:image/svg+xml,PHN2ZyB4bWxucz0iaHR0cDovL3d3dy53My5vcmcvMjAwMC9zdmciIHhtbG5zOnY9Imh0dHBzOi8vdmVjdGEuaW8vbmFubyIgd2lkdGg9IjIwIiBoZWlnaHQ9IjIwIiB2aWV3Qm94PSIwIDAgMjAgMjAiPiYjeGE7CTxzdHlsZSB0eXBlPSJ0ZXh0L2NzcyI+JiN4YTsJLnN0MHtmaWxsOiM0Mjg1ZjQ7fSYjeGE7CS5zdDF7ZmlsbDojNjY5ZGY2O30mI3hhOwkuc3Qye2ZpbGw6I2FlY2JmYTt9JiN4YTsJPC9zdHlsZT4mI3hhOwk8cGF0aCBjbGFzcz0ic3QxIiBkPSJNMTMuMTMgNS42M1YzLjIxTDEwIDB2Mi40MXptMy43NSA3LjVMMjAgMTBoLTIuNWwtMy4xMiAzLjEzem0tMTMuNzUgMEwwIDEwaDIuNWwzLjEzIDMuMTN6bTEwIDEuMjV2Mi40MUwxMCAyMHYtMi40MXoiIGZpbGwtcnVsZT0iZXZlbm9kZCIvPiYjeGE7CTxwYXRoIGNsYXNzPSJzdDIiIGQ9Ik02Ljg4IDUuNjNMMTAgMi40MVYwTDYuODggMy4yMXpNMTcuNSAxMEgyMGwtMy4xMi0zLjEyaC0yLjV6bS0xNSAwSDBsMy4xMy0zLjEyaDIuNXptNC4zOCA0LjM4TDEwIDE3LjU5VjIwbC0zLjEyLTMuMjF6bTAtNy41aDYuMjV2Ni4yNUg2Ljg4eiIgZmlsbC1ydWxlPSJldmVub2RkIi8+JiN4YTsJPHBhdGggY2xhc3M9InN0MSIgZD0iTTYuODggMTMuMTNsNi4yNS02LjI1djYuMjV6IiBmaWxsLXJ1bGU9ImV2ZW5vZGQiLz4mI3hhOwk8cGF0aCBjbGFzcz0ic3QwIiBkPSJNMTAgMTBsMy4xMy0zLjEydjYuMjV6IiBmaWxsLXJ1bGU9ImV2ZW5vZGQiLz4mI3hhOzwvc3ZnPg==;" vertex="1" parent="XFF4y8vnrjnA9_jUFiSj-29">
          <mxGeometry width="30" height="30" relative="1" as="geometry">
            <mxPoint x="15" y="15" as="offset" />
          </mxGeometry>
        </mxCell>
        <mxCell id="XFF4y8vnrjnA9_jUFiSj-31" style="edgeStyle=orthogonalEdgeStyle;rounded=0;orthogonalLoop=1;jettySize=auto;html=1;exitX=0.5;exitY=1;exitDx=0;exitDy=0;" edge="1" parent="1" source="XFF4y8vnrjnA9_jUFiSj-29" target="XFF4y8vnrjnA9_jUFiSj-29">
          <mxGeometry relative="1" as="geometry" />
        </mxCell>
        <mxCell id="XFF4y8vnrjnA9_jUFiSj-37" style="edgeStyle=orthogonalEdgeStyle;rounded=0;orthogonalLoop=1;jettySize=auto;html=1;exitX=1;exitY=0.5;exitDx=0;exitDy=0;exitPerimeter=0;entryX=0;entryY=0.5;entryDx=0;entryDy=0;dashed=1;" edge="1" parent="1" source="XFF4y8vnrjnA9_jUFiSj-33" target="XFF4y8vnrjnA9_jUFiSj-36">
          <mxGeometry relative="1" as="geometry" />
        </mxCell>
        <mxCell id="XFF4y8vnrjnA9_jUFiSj-33" value="Identity-aware &lt;br&gt;proxy" style="sketch=0;points=[[0,0,0],[0.25,0,0],[0.5,0,0],[0.75,0,0],[1,0,0],[0,1,0],[0.25,1,0],[0.5,1,0],[0.75,1,0],[1,1,0],[0,0.25,0],[0,0.5,0],[0,0.75,0],[1,0.25,0],[1,0.5,0],[1,0.75,0]];outlineConnect=0;fontColor=#232F3E;fillColor=#DD344C;strokeColor=#ffffff;dashed=0;verticalLabelPosition=bottom;verticalAlign=top;align=center;html=1;fontSize=12;fontStyle=0;aspect=fixed;shape=mxgraph.aws4.resourceIcon;resIcon=mxgraph.aws4.security_hub;" vertex="1" parent="1">
          <mxGeometry x="660" y="330.03" width="39.97" height="39.97" as="geometry" />
        </mxCell>
        <mxCell id="XFF4y8vnrjnA9_jUFiSj-34" style="edgeStyle=orthogonalEdgeStyle;rounded=0;orthogonalLoop=1;jettySize=auto;html=1;exitX=1;exitY=0.5;exitDx=0;exitDy=0;entryX=0.056;entryY=0.436;entryDx=0;entryDy=0;entryPerimeter=0;startArrow=classic;startFill=1;" edge="1" parent="1" source="XFF4y8vnrjnA9_jUFiSj-29" target="XFF4y8vnrjnA9_jUFiSj-24">
          <mxGeometry relative="1" as="geometry" />
        </mxCell>
        <mxCell id="XFF4y8vnrjnA9_jUFiSj-36" value="Cloud&#xa;IAM" style="sketch=0;html=1;verticalAlign=top;labelPosition=center;verticalLabelPosition=bottom;align=center;spacingTop=-6;fontSize=11;fontStyle=1;fontColor=#999999;shape=image;aspect=fixed;imageAspect=0;image=data:image/svg+xml,PHN2ZyB4bWxucz0iaHR0cDovL3d3dy53My5vcmcvMjAwMC9zdmciIHhtbG5zOnY9Imh0dHBzOi8vdmVjdGEuaW8vbmFubyIgd2lkdGg9IjE2LjQyMDAwMDA3NjI5Mzk0NSIgaGVpZ2h0PSIyMC4wNDk5OTkyMzcwNjA1NDciIGZpbGwtcnVsZT0iZXZlbm9kZCIgdmlld0JveD0iMCAwIDE2LjQyMDAwMDA3NjI5Mzk0NSAyMC4wNDk5OTkyMzcwNjA1NDciPiYjeGE7CTxzdHlsZSB0eXBlPSJ0ZXh0L2NzcyI+JiN4YTsJLnN0MHtmaWxsOiM0Mjg1ZjQ7fSYjeGE7CS5zdDF7ZmlsbDojNjY5ZGY2O30mI3hhOwk8L3N0eWxlPiYjeGE7CTxwYXRoIGNsYXNzPSJzdDEiIGQ9Ik04LjIxIDBMMCAzLjQydjUuNjNjMCA1LjA2IDMuNSA5LjggOC4yMSAxMSA0LjcxLTEuMTUgOC4yMS01Ljg5IDguMjEtMTAuOTVWMy40MnptMCAzLjc5YTIuNjMgMi42MyAwIDAgMSAxLjAwNSA1LjA2QTIuNjMgMi42MyAwIDAgMSA2LjM1IDQuNTZhMi42MyAyLjYzIDAgMCAxIDEuODYtLjc3em00LjExIDExLjE1YTguNjQgOC42NCAwIDAgMS00LjExIDIuOTMgOC42NCA4LjY0IDAgMCAxLTQuMTEtMi45M3YtMi4yNWMwLTEuNjcgMi43NC0yLjUyIDQuMTEtMi41MnM0LjExLjg1IDQuMTEgMi41MnoiLz4mI3hhOwk8cGF0aCBjbGFzcz0ic3QwIiBkPSJNOC4yMSAwdjMuNzlhMi42MyAyLjYzIDAgMSAxIDAgNS4yNnYxLjEyYzEuMzcgMCA0LjExLjg1IDQuMTEgMi41MnYyLjI1YTguNjQgOC42NCAwIDAgMS00LjExIDIuOTNWMjBjNC43MS0xLjE1IDguMjEtNS44OSA4LjIxLTEwLjk1VjMuNDJ6Ii8+JiN4YTs8L3N2Zz4=;imageBackground=#FF9999;" vertex="1" parent="1">
          <mxGeometry x="770" y="329.01" width="34" height="42" as="geometry" />
        </mxCell>
        <mxCell id="XFF4y8vnrjnA9_jUFiSj-46" style="edgeStyle=orthogonalEdgeStyle;rounded=0;orthogonalLoop=1;jettySize=auto;html=1;exitX=1;exitY=0.5;exitDx=0;exitDy=0;dashed=1;" edge="1" parent="1" source="XFF4y8vnrjnA9_jUFiSj-39" target="XFF4y8vnrjnA9_jUFiSj-38">
          <mxGeometry relative="1" as="geometry" />
        </mxCell>
        <mxCell id="XFF4y8vnrjnA9_jUFiSj-39" value="GKE" style="editableCssRules=.*;html=1;shape=image;verticalLabelPosition=bottom;labelBackgroundColor=#ffffff;verticalAlign=top;aspect=fixed;imageAspect=0;image=data:image/svg+xml,PHN2ZyB4bWxucz0iaHR0cDovL3d3dy53My5vcmcvMjAwMC9zdmciIHhtbG5zOnY9Imh0dHBzOi8vdmVjdGEuaW8vbmFubyIgd2lkdGg9IjQwMi4zNDMyMDA2ODM1OTM3NSIgaGVpZ2h0PSI0MTYuMDAyNTMyOTU4OTg0NCIgdmlld0JveD0iMCAwLjAwMDQ5OTk2Mzc2MDM3NTk3NjYgNDAyLjM0MzIwMDY4MzU5Mzc1IDQxNi4wMDI1MzI5NTg5ODQ0Ij4mI3hhOwk8c3R5bGUgdHlwZT0idGV4dC9jc3MiPiYjeGE7CS5zdDB7ZmlsbDojNDI4NWY0O30mI3hhOwkuc3Qxe2ZpbGw6IzY2OWRmNjt9JiN4YTsJLnN0MntmaWxsOiNhZWNiZmE7fSYjeGE7CTwvc3R5bGU+JiN4YTsJPHBhdGggY2xhc3M9InN0MiIgZD0iTTM2Ni4xNyA5Mi4wMDNjLTE5LjA1IDAtMzYgMTYuODItMzYgMzUuNzYgMCAxMi42MiA4LjQ2IDI1LjI0IDE5LjA1IDMxLjU1djE0Ny4zbC0xMTAuMDUgNjUuMjEgMTYuOTMgMjcuMzUgMTE4LjUxLTY5LjQyYzQuMjQtMi4xIDguNDctOC40MSA4LjQ3LTE0Ljczdi0xNTUuNjdjMTIuNzEtNi4zNSAxOS4wOS0xOC45MyAxOS4wOS0zMS41NSAyLjA4LTE4Ljk0LTE0Ljg1LTM1LjgtMzYtMzUuOHptLTM4LjExLTIzLjFMMjA5LjU1IDEuNTgzYy00LjI0LTIuMTEtMTAuNTktMi4xMS0xNi45MyAwTDU3LjE3IDc5LjQxM0EzNiAzNiAwIDAgMCAzNiA3My4xMDNjLTE5IDAtMzYgMTYuODMtMzYgMzUuNzZzMTYuOTMgMzUuNzcgMzYgMzUuNzcgMzYtMTYuODMgMzYtMzUuNzdsMTI5LjEtNzMuNjIgMTEwIDYzLjExem0tMTQzLjg5IDI3Ny42OHEtOS41MyAwLTE5IDYuMzFsLTExMC02My4xMXYtMTI2LjIyaC0zNHYxMzQuNjNjMCA2LjMyIDQuMjMgMTIuNjMgOC40NiAxNC43M2wxMTguNTQgNjUuMjF2Mi4xMWMwIDE4LjkzIDE2LjkzIDM1Ljc2IDM2IDM1Ljc2czM2LTE2LjgzIDM2LTM1Ljc2LTE3LTMzLjY2LTM2LTMzLjY2eiIvPiYjeGE7CTxwYXRoIGNsYXNzPSJzdDEiIGQ9Ik05Ny4zOCAxMzYuMjEzbDEwNS44MiA1OC45MSAxMDMuNy01OC45MS0xMDMuNy02MXptLTYuMzUgNjcuMzJsMTEyLjE3IDYzLjExdi01MC40OWwtMTEyLjE3LTY1LjIxem0wIDYzLjExbDExMi4xNyA2NS4yMXYtNDQuMTdsLTExMi4xNy02NS4yMnoiLz4mI3hhOwk8cGF0aCBjbGFzcz0ic3QwIiBkPSJNMjAzLjE3IDIxNi4xMjN2NTAuNTZsMTEyLjE2LTY1LjI5di01MC4zOXptOTItMjBhOC4xNiA4LjE2IDAgMSAxIDguMTYtOC4xNiA4LjE5IDguMTkgMCAwIDEtOC4xNiA4LjE2em0tOTIgOTEuNTJ2NDQuMTZsMTEyLjE2LTY1LjEydi00NC4xNnptOTItMjIuODhhOC4xNiA4LjE2IDAgMSAxIDguMTYtOC4xNiA4LjE5IDguMTkgMCAwIDEtOC4xNiA4LjE2eiIvPiYjeGE7PC9zdmc+;imageBackground=#99FF99;" vertex="1" parent="1">
          <mxGeometry x="656.23" y="430" width="47.5" height="50" as="geometry" />
        </mxCell>
        <mxCell id="XFF4y8vnrjnA9_jUFiSj-40" style="edgeStyle=orthogonalEdgeStyle;rounded=0;orthogonalLoop=1;jettySize=auto;html=1;exitX=0.5;exitY=0;exitDx=0;exitDy=0;entryX=0.5;entryY=1;entryDx=0;entryDy=0;entryPerimeter=0;startArrow=classic;startFill=1;dashed=1;" edge="1" parent="1" source="XFF4y8vnrjnA9_jUFiSj-39" target="XFF4y8vnrjnA9_jUFiSj-33">
          <mxGeometry relative="1" as="geometry" />
        </mxCell>
        <mxCell id="XFF4y8vnrjnA9_jUFiSj-44" value="" style="group;fillColor=none;strokeColor=#82b366;" vertex="1" connectable="0" parent="1">
          <mxGeometry x="767" y="431" width="72" height="71" as="geometry" />
        </mxCell>
        <mxCell id="XFF4y8vnrjnA9_jUFiSj-38" value="" style="aspect=fixed;sketch=0;html=1;dashed=0;whitespace=wrap;fillColor=#d5e8d4;strokeColor=#82b366;points=[[0.005,0.63,0],[0.1,0.2,0],[0.9,0.2,0],[0.5,0,0],[0.995,0.63,0],[0.72,0.99,0],[0.5,1,0],[0.28,0.99,0]];shape=mxgraph.kubernetes.icon2;kubernetesLabel=1;prIcon=pod" vertex="1" parent="XFF4y8vnrjnA9_jUFiSj-44">
          <mxGeometry x="11" width="50" height="48" as="geometry" />
        </mxCell>
        <mxCell id="XFF4y8vnrjnA9_jUFiSj-43" value="Nodered" style="text;html=1;strokeColor=none;fillColor=none;align=center;verticalAlign=middle;whiteSpace=wrap;rounded=0;fontStyle=1" vertex="1" parent="XFF4y8vnrjnA9_jUFiSj-44">
          <mxGeometry y="41" width="72" height="30" as="geometry" />
        </mxCell>
        <mxCell id="XFF4y8vnrjnA9_jUFiSj-65" style="edgeStyle=orthogonalEdgeStyle;rounded=0;orthogonalLoop=1;jettySize=auto;html=1;exitX=0.5;exitY=0;exitDx=0;exitDy=0;entryX=1;entryY=0.5;entryDx=0;entryDy=0;curved=1;strokeColor=#82b366;dashed=1;fillColor=#d5e8d4;" edge="1" parent="1" source="XFF4y8vnrjnA9_jUFiSj-49" target="XFF4y8vnrjnA9_jUFiSj-18">
          <mxGeometry relative="1" as="geometry" />
        </mxCell>
        <mxCell id="XFF4y8vnrjnA9_jUFiSj-49" value="MQTT I/O flow" style="rounded=1;whiteSpace=wrap;html=1;fillColor=#d5e8d4;strokeColor=#82b366;" vertex="1" parent="1">
          <mxGeometry x="1050" y="502" width="90" height="30" as="geometry" />
        </mxCell>
        <mxCell id="XFF4y8vnrjnA9_jUFiSj-68" style="rounded=0;orthogonalLoop=1;jettySize=auto;html=1;exitX=1;exitY=0.5;exitDx=0;exitDy=0;entryX=0;entryY=0.5;entryDx=0;entryDy=0;startArrow=none;startFill=0;dashed=1;" edge="1" parent="1" source="XFF4y8vnrjnA9_jUFiSj-50" target="XFF4y8vnrjnA9_jUFiSj-55">
          <mxGeometry relative="1" as="geometry" />
        </mxCell>
        <mxCell id="XFF4y8vnrjnA9_jUFiSj-69" style="edgeStyle=orthogonalEdgeStyle;rounded=0;orthogonalLoop=1;jettySize=auto;html=1;entryX=0;entryY=0.5;entryDx=0;entryDy=0;startArrow=none;startFill=0;dashed=1;" edge="1" parent="1" source="XFF4y8vnrjnA9_jUFiSj-50" target="XFF4y8vnrjnA9_jUFiSj-54">
          <mxGeometry relative="1" as="geometry" />
        </mxCell>
        <mxCell id="XFF4y8vnrjnA9_jUFiSj-70" style="rounded=0;orthogonalLoop=1;jettySize=auto;html=1;entryX=0;entryY=0.5;entryDx=0;entryDy=0;dashed=1;startArrow=none;startFill=0;" edge="1" parent="1" target="XFF4y8vnrjnA9_jUFiSj-56">
          <mxGeometry relative="1" as="geometry">
            <mxPoint x="870" y="555" as="sourcePoint" />
          </mxGeometry>
        </mxCell>
        <mxCell id="XFF4y8vnrjnA9_jUFiSj-50" value="GUI 1 flow" style="rounded=1;whiteSpace=wrap;html=1;fillColor=#f8cecc;strokeColor=#b85450;" vertex="1" parent="1">
          <mxGeometry x="780" y="540" width="90" height="30" as="geometry" />
        </mxCell>
        <mxCell id="XFF4y8vnrjnA9_jUFiSj-76" style="rounded=0;orthogonalLoop=1;jettySize=auto;html=1;exitX=1;exitY=0.5;exitDx=0;exitDy=0;entryX=0;entryY=0.5;entryDx=0;entryDy=0;dashed=1;" edge="1" parent="1" source="XFF4y8vnrjnA9_jUFiSj-51" target="XFF4y8vnrjnA9_jUFiSj-55">
          <mxGeometry relative="1" as="geometry" />
        </mxCell>
        <mxCell id="XFF4y8vnrjnA9_jUFiSj-77" style="rounded=0;orthogonalLoop=1;jettySize=auto;html=1;exitX=1;exitY=0.5;exitDx=0;exitDy=0;entryX=0;entryY=0.5;entryDx=0;entryDy=0;dashed=1;" edge="1" parent="1" source="XFF4y8vnrjnA9_jUFiSj-51" target="XFF4y8vnrjnA9_jUFiSj-54">
          <mxGeometry relative="1" as="geometry" />
        </mxCell>
        <mxCell id="XFF4y8vnrjnA9_jUFiSj-51" value="GUI 2 flow" style="rounded=1;whiteSpace=wrap;html=1;fillColor=#f8cecc;strokeColor=#b85450;" vertex="1" parent="1">
          <mxGeometry x="780" y="582" width="90" height="30" as="geometry" />
        </mxCell>
        <mxCell id="XFF4y8vnrjnA9_jUFiSj-52" value="" style="aspect=fixed;sketch=0;html=1;dashed=0;whitespace=wrap;fillColor=#f8cecc;strokeColor=#b85450;points=[[0.005,0.63,0],[0.1,0.2,0],[0.9,0.2,0],[0.5,0,0],[0.995,0.63,0],[0.72,0.99,0],[0.5,1,0],[0.28,0.99,0]];shape=mxgraph.kubernetes.icon2;kubernetesLabel=1;prIcon=pv" vertex="1" parent="1">
          <mxGeometry x="655" y="522" width="50" height="48" as="geometry" />
        </mxCell>
        <mxCell id="XFF4y8vnrjnA9_jUFiSj-53" style="edgeStyle=orthogonalEdgeStyle;rounded=0;orthogonalLoop=1;jettySize=auto;html=1;entryX=0.495;entryY=0.301;entryDx=0;entryDy=0;entryPerimeter=0;" edge="1" parent="1" source="XFF4y8vnrjnA9_jUFiSj-39" target="XFF4y8vnrjnA9_jUFiSj-52">
          <mxGeometry relative="1" as="geometry" />
        </mxCell>
        <mxCell id="XFF4y8vnrjnA9_jUFiSj-72" style="edgeStyle=orthogonalEdgeStyle;rounded=0;orthogonalLoop=1;jettySize=auto;html=1;entryX=0;entryY=0.5;entryDx=0;entryDy=0;dashed=1;" edge="1" parent="1" source="XFF4y8vnrjnA9_jUFiSj-54" target="XFF4y8vnrjnA9_jUFiSj-57">
          <mxGeometry relative="1" as="geometry" />
        </mxCell>
        <mxCell id="XFF4y8vnrjnA9_jUFiSj-54" value="browse medications flow" style="rounded=1;whiteSpace=wrap;html=1;align=left;fillColor=#f8cecc;strokeColor=#b85450;" vertex="1" parent="1">
          <mxGeometry x="910" y="540" width="100" height="30" as="geometry" />
        </mxCell>
        <mxCell id="XFF4y8vnrjnA9_jUFiSj-71" style="edgeStyle=orthogonalEdgeStyle;rounded=0;orthogonalLoop=1;jettySize=auto;html=1;exitX=1;exitY=0.5;exitDx=0;exitDy=0;entryX=0;entryY=0.5;entryDx=0;entryDy=0;dashed=1;" edge="1" parent="1" source="XFF4y8vnrjnA9_jUFiSj-55" target="XFF4y8vnrjnA9_jUFiSj-49">
          <mxGeometry relative="1" as="geometry" />
        </mxCell>
        <mxCell id="XFF4y8vnrjnA9_jUFiSj-73" style="rounded=0;orthogonalLoop=1;jettySize=auto;html=1;exitX=1;exitY=0.5;exitDx=0;exitDy=0;entryX=0;entryY=0.5;entryDx=0;entryDy=0;dashed=1;" edge="1" parent="1" source="XFF4y8vnrjnA9_jUFiSj-55" target="XFF4y8vnrjnA9_jUFiSj-57">
          <mxGeometry relative="1" as="geometry" />
        </mxCell>
        <mxCell id="XFF4y8vnrjnA9_jUFiSj-74" style="rounded=0;orthogonalLoop=1;jettySize=auto;html=1;exitX=1;exitY=0.5;exitDx=0;exitDy=0;entryX=0;entryY=0.5;entryDx=0;entryDy=0;dashed=1;" edge="1" parent="1" source="XFF4y8vnrjnA9_jUFiSj-55" target="XFF4y8vnrjnA9_jUFiSj-58">
          <mxGeometry relative="1" as="geometry" />
        </mxCell>
        <mxCell id="XFF4y8vnrjnA9_jUFiSj-55" value="load/retrieve flow" style="rounded=1;whiteSpace=wrap;html=1;fillColor=#f8cecc;strokeColor=#b85450;" vertex="1" parent="1">
          <mxGeometry x="910" y="502" width="100" height="30" as="geometry" />
        </mxCell>
        <mxCell id="XFF4y8vnrjnA9_jUFiSj-75" style="edgeStyle=orthogonalEdgeStyle;rounded=0;orthogonalLoop=1;jettySize=auto;html=1;exitX=1;exitY=0.5;exitDx=0;exitDy=0;entryX=0;entryY=0.5;entryDx=0;entryDy=0;dashed=1;" edge="1" parent="1" source="XFF4y8vnrjnA9_jUFiSj-56" target="XFF4y8vnrjnA9_jUFiSj-58">
          <mxGeometry relative="1" as="geometry" />
        </mxCell>
        <mxCell id="XFF4y8vnrjnA9_jUFiSj-56" value="view access history flow" style="rounded=1;whiteSpace=wrap;html=1;fillColor=#f8cecc;strokeColor=#b85450;" vertex="1" parent="1">
          <mxGeometry x="910" y="577" width="100" height="30" as="geometry" />
        </mxCell>
        <mxCell id="XFF4y8vnrjnA9_jUFiSj-57" value="DB access flow" style="rounded=1;whiteSpace=wrap;html=1;fillColor=#f8cecc;strokeColor=#b85450;" vertex="1" parent="1">
          <mxGeometry x="1050" y="540" width="90" height="30" as="geometry" />
        </mxCell>
        <mxCell id="XFF4y8vnrjnA9_jUFiSj-58" value="logging access flow" style="rounded=1;whiteSpace=wrap;html=1;fillColor=#f8cecc;strokeColor=#b85450;" vertex="1" parent="1">
          <mxGeometry x="1050" y="577" width="90" height="30" as="geometry" />
        </mxCell>
        <mxCell id="XFF4y8vnrjnA9_jUFiSj-63" style="edgeStyle=orthogonalEdgeStyle;rounded=0;orthogonalLoop=1;jettySize=auto;html=1;exitX=0;exitY=0.5;exitDx=0;exitDy=0;entryX=1;entryY=0.5;entryDx=0;entryDy=0;curved=1;startArrow=classic;startFill=1;dashed=1;fillColor=#f8cecc;strokeColor=#b85450;" edge="1" parent="1" source="XFF4y8vnrjnA9_jUFiSj-59" target="XFF4y8vnrjnA9_jUFiSj-57">
          <mxGeometry relative="1" as="geometry" />
        </mxCell>
        <mxCell id="XFF4y8vnrjnA9_jUFiSj-59" value="" style="shape=datastore;whiteSpace=wrap;html=1;fillColor=#f8cecc;strokeColor=#b85450;" vertex="1" parent="1">
          <mxGeometry x="1320" y="490" width="40" height="40" as="geometry" />
        </mxCell>
        <mxCell id="XFF4y8vnrjnA9_jUFiSj-60" value="&lt;span style=&quot;color: rgb(0, 0, 0); font-family: Helvetica; font-size: 12px; font-style: normal; font-variant-ligatures: normal; font-variant-caps: normal; font-weight: 700; letter-spacing: normal; orphans: 2; text-align: center; text-indent: 0px; text-transform: none; widows: 2; word-spacing: 0px; -webkit-text-stroke-width: 0px; background-color: rgb(251, 251, 251); text-decoration-thickness: initial; text-decoration-style: initial; text-decoration-color: initial; float: none; display: inline !important;&quot;&gt;Medications database&lt;/span&gt;" style="text;whiteSpace=wrap;html=1;" vertex="1" parent="1">
          <mxGeometry x="1320" y="530" width="100" height="40" as="geometry" />
        </mxCell>
        <mxCell id="XFF4y8vnrjnA9_jUFiSj-64" style="edgeStyle=orthogonalEdgeStyle;rounded=0;orthogonalLoop=1;jettySize=auto;html=1;curved=1;strokeColor=#b85450;dashed=1;fillColor=#f8cecc;" edge="1" parent="1" source="XFF4y8vnrjnA9_jUFiSj-61" target="XFF4y8vnrjnA9_jUFiSj-58">
          <mxGeometry relative="1" as="geometry" />
        </mxCell>
        <mxCell id="XFF4y8vnrjnA9_jUFiSj-61" value="" style="shape=datastore;whiteSpace=wrap;html=1;fillColor=#f8cecc;strokeColor=#b85450;" vertex="1" parent="1">
          <mxGeometry x="1320" y="577" width="40" height="40" as="geometry" />
        </mxCell>
        <mxCell id="XFF4y8vnrjnA9_jUFiSj-62" value="access logs store" style="text;whiteSpace=wrap;html=1;fontStyle=1;fillColor=#f8cecc;strokeColor=#b85450;" vertex="1" parent="1">
          <mxGeometry x="1320" y="617" width="110" height="23" as="geometry" />
        </mxCell>
        <mxCell id="XFF4y8vnrjnA9_jUFiSj-90" style="edgeStyle=orthogonalEdgeStyle;rounded=0;orthogonalLoop=1;jettySize=auto;html=1;startArrow=classic;startFill=1;" edge="1" parent="1" source="XFF4y8vnrjnA9_jUFiSj-78" target="XFF4y8vnrjnA9_jUFiSj-10">
          <mxGeometry relative="1" as="geometry" />
        </mxCell>
        <mxCell id="XFF4y8vnrjnA9_jUFiSj-78" value="" style="verticalLabelPosition=bottom;html=1;verticalAlign=top;align=center;strokeColor=none;fillColor=#00BEF2;shape=mxgraph.azure.user;" vertex="1" parent="1">
          <mxGeometry x="403.86" y="77.61999999999998" width="30.5" height="32.38" as="geometry" />
        </mxCell>
        <mxCell id="XFF4y8vnrjnA9_jUFiSj-79" value="" style="aspect=fixed;sketch=0;html=1;dashed=0;whitespace=wrap;fillColor=#2875E2;strokeColor=#ffffff;points=[[0.005,0.63,0],[0.1,0.2,0],[0.9,0.2,0],[0.5,0,0],[0.995,0.63,0],[0.72,0.99,0],[0.5,1,0],[0.28,0.99,0]];shape=mxgraph.kubernetes.icon2;prIcon=user" vertex="1" parent="1">
          <mxGeometry x="870" y="323" width="30" height="28.8" as="geometry" />
        </mxCell>
        <mxCell id="XFF4y8vnrjnA9_jUFiSj-83" value="&lt;div style=&quot;text-align: center; font-size: 10px;&quot;&gt;&lt;span style=&quot;background-color: initial; font-size: 10px;&quot;&gt;&lt;span style=&quot;font-size: 10px;&quot;&gt;User: Alice; role: pharmacist&lt;/span&gt;&lt;/span&gt;&lt;/div&gt;" style="text;whiteSpace=wrap;html=1;fontSize=10;fontStyle=0" vertex="1" parent="1">
          <mxGeometry x="870" y="345" width="180" height="20" as="geometry" />
        </mxCell>
        <mxCell id="XFF4y8vnrjnA9_jUFiSj-84" value="" style="aspect=fixed;sketch=0;html=1;dashed=0;whitespace=wrap;fillColor=#2875E2;strokeColor=#ffffff;points=[[0.005,0.63,0],[0.1,0.2,0],[0.9,0.2,0],[0.5,0,0],[0.995,0.63,0],[0.72,0.99,0],[0.5,1,0],[0.28,0.99,0]];shape=mxgraph.kubernetes.icon2;prIcon=user" vertex="1" parent="1">
          <mxGeometry x="870" y="365" width="30" height="28.8" as="geometry" />
        </mxCell>
        <mxCell id="XFF4y8vnrjnA9_jUFiSj-85" value="&lt;div style=&quot;text-align: center; font-size: 10px;&quot;&gt;&lt;span style=&quot;background-color: initial; font-size: 10px;&quot;&gt;&lt;span style=&quot;font-size: 10px;&quot;&gt;User: Trish; role: staff member&lt;/span&gt;&lt;/span&gt;&lt;/div&gt;" style="text;whiteSpace=wrap;html=1;fontSize=10;fontStyle=0" vertex="1" parent="1">
          <mxGeometry x="870" y="387" width="180" height="20" as="geometry" />
        </mxCell>
        <mxCell id="XFF4y8vnrjnA9_jUFiSj-86" style="rounded=0;orthogonalLoop=1;jettySize=auto;html=1;entryX=0.07;entryY=0.482;entryDx=0;entryDy=0;entryPerimeter=0;" edge="1" parent="1" source="XFF4y8vnrjnA9_jUFiSj-36" target="XFF4y8vnrjnA9_jUFiSj-79">
          <mxGeometry relative="1" as="geometry" />
        </mxCell>
        <mxCell id="XFF4y8vnrjnA9_jUFiSj-87" style="rounded=0;orthogonalLoop=1;jettySize=auto;html=1;exitX=1;exitY=0.5;exitDx=0;exitDy=0;entryX=0.005;entryY=0.63;entryDx=0;entryDy=0;entryPerimeter=0;" edge="1" parent="1" source="XFF4y8vnrjnA9_jUFiSj-36" target="XFF4y8vnrjnA9_jUFiSj-84">
          <mxGeometry relative="1" as="geometry" />
        </mxCell>
        <mxCell id="XFF4y8vnrjnA9_jUFiSj-91" value="Actuators work, sensors may be implemented if we will have any time left" style="rounded=1;whiteSpace=wrap;html=1;strokeWidth=2;fillWeight=4;hachureGap=8;hachureAngle=45;fillColor=#fff2cc;sketch=1;strokeColor=#d6b656;" vertex="1" parent="1">
          <mxGeometry x="150" y="-40" width="150" height="60" as="geometry" />
        </mxCell>
        <mxCell id="XFF4y8vnrjnA9_jUFiSj-92" style="rounded=0;orthogonalLoop=1;jettySize=auto;html=1;exitX=0.5;exitY=0;exitDx=0;exitDy=0;entryX=0.825;entryY=0.994;entryDx=0;entryDy=0;entryPerimeter=0;fillColor=#fff2cc;strokeColor=#d6b656;" edge="1" parent="1" source="XFF4y8vnrjnA9_jUFiSj-2" target="XFF4y8vnrjnA9_jUFiSj-91">
          <mxGeometry relative="1" as="geometry" />
        </mxCell>
        <mxCell id="XFF4y8vnrjnA9_jUFiSj-93" value="Google Cloud" style="text;html=1;strokeColor=none;fillColor=none;align=center;verticalAlign=middle;whiteSpace=wrap;rounded=0;fontStyle=1" vertex="1" parent="1">
          <mxGeometry x="505" y="293" width="110" height="30" as="geometry" />
        </mxCell>
        <mxCell id="XFF4y8vnrjnA9_jUFiSj-96" style="rounded=0;orthogonalLoop=1;jettySize=auto;html=1;exitX=1;exitY=0.5;exitDx=0;exitDy=0;entryX=0;entryY=0.5;entryDx=0;entryDy=0;fillColor=#fff2cc;strokeColor=#d6b656;" edge="1" parent="1" source="XFF4y8vnrjnA9_jUFiSj-94" target="XFF4y8vnrjnA9_jUFiSj-51">
          <mxGeometry relative="1" as="geometry" />
        </mxCell>
        <mxCell id="XFF4y8vnrjnA9_jUFiSj-97" style="rounded=0;orthogonalLoop=1;jettySize=auto;html=1;exitX=1;exitY=0.5;exitDx=0;exitDy=0;fillColor=#ffe6cc;strokeColor=#d79b00;" edge="1" parent="1" source="XFF4y8vnrjnA9_jUFiSj-94" target="XFF4y8vnrjnA9_jUFiSj-24">
          <mxGeometry relative="1" as="geometry" />
        </mxCell>
        <mxCell id="XFF4y8vnrjnA9_jUFiSj-94" value="I already have checked. We can have separate URLs for each GUI" style="rounded=1;whiteSpace=wrap;html=1;strokeWidth=2;fillWeight=4;hachureGap=8;hachureAngle=45;fillColor=#fff2cc;sketch=1;strokeColor=#d6b656;" vertex="1" parent="1">
          <mxGeometry x="253.86" y="522" width="150" height="60" as="geometry" />
        </mxCell>
        <mxCell id="XFF4y8vnrjnA9_jUFiSj-95" value="User accessing web interfaces through URL" style="text;html=1;strokeColor=none;fillColor=none;align=center;verticalAlign=middle;whiteSpace=wrap;rounded=0;fontStyle=1" vertex="1" parent="1">
          <mxGeometry x="425" y="77.61999999999999" width="110" height="30" as="geometry" />
        </mxCell>
        <mxCell id="XFF4y8vnrjnA9_jUFiSj-99" style="edgeStyle=orthogonalEdgeStyle;rounded=0;orthogonalLoop=1;jettySize=auto;html=1;fillColor=#f8cecc;strokeColor=#b85450;" edge="1" parent="1" source="XFF4y8vnrjnA9_jUFiSj-98" target="XFF4y8vnrjnA9_jUFiSj-59">
          <mxGeometry relative="1" as="geometry" />
        </mxCell>
        <mxCell id="XFF4y8vnrjnA9_jUFiSj-101" style="edgeStyle=orthogonalEdgeStyle;rounded=0;orthogonalLoop=1;jettySize=auto;html=1;exitX=1;exitY=0.5;exitDx=0;exitDy=0;entryX=1;entryY=0.7;entryDx=0;entryDy=0;curved=1;fillColor=#f8cecc;strokeColor=#b85450;" edge="1" parent="1" source="XFF4y8vnrjnA9_jUFiSj-98" target="XFF4y8vnrjnA9_jUFiSj-61">
          <mxGeometry relative="1" as="geometry" />
        </mxCell>
        <mxCell id="XFF4y8vnrjnA9_jUFiSj-98" value="These parts have to be completed" style="rounded=1;whiteSpace=wrap;html=1;strokeWidth=2;fillWeight=4;hachureGap=8;hachureAngle=45;fillColor=#f8cecc;sketch=1;strokeColor=#b85450;" vertex="1" parent="1">
          <mxGeometry x="1265" y="250" width="150" height="60" as="geometry" />
        </mxCell>
        <mxCell id="XFF4y8vnrjnA9_jUFiSj-102" value="Green - completed and working" style="whiteSpace=wrap;html=1;fillColor=#d5e8d4;strokeColor=#82b366;" vertex="1" parent="1">
          <mxGeometry x="840" y="50" width="120" height="60" as="geometry" />
        </mxCell>
        <mxCell id="XFF4y8vnrjnA9_jUFiSj-103" value="Red - have still needs to be done" style="whiteSpace=wrap;html=1;fillColor=#f8cecc;strokeColor=#b85450;" vertex="1" parent="1">
          <mxGeometry x="840" y="120" width="120" height="60" as="geometry" />
        </mxCell>
        <mxCell id="XFF4y8vnrjnA9_jUFiSj-104" value="Yellow - comments" style="whiteSpace=wrap;html=1;fillColor=#fff2cc;strokeColor=#d6b656;" vertex="1" parent="1">
          <mxGeometry x="980" y="50" width="120" height="60" as="geometry" />
        </mxCell>
        <mxCell id="XFF4y8vnrjnA9_jUFiSj-105" value="Legend" style="text;html=1;strokeColor=none;fillColor=none;align=center;verticalAlign=middle;whiteSpace=wrap;rounded=0;fontStyle=1" vertex="1" parent="1">
          <mxGeometry x="870" y="10" width="220" height="30" as="geometry" />
        </mxCell>
      </root>
    </mxGraphModel>
  </diagram>
</mxfile>
